<?xml version="1.0" encoding="utf-8"?>
<!-- Generator: Adobe Illustrator 16.0.0, SVG Export Plug-In . SVG Version: 6.00 Build 0)  -->
<!DOCTYPE svg PUBLIC "-//W3C//DTD SVG 1.1//EN" "http://www.w3.org/Graphics/SVG/1.1/DTD/svg11.dtd">
<svg version="1.1" id="Livello_1" xmlns="http://www.w3.org/2000/svg" xmlns:xlink="http://www.w3.org/1999/xlink" x="0px" y="0px"
	 width="841.89px" height="1190.55px" viewBox="0 0 841.89 1190.55" enable-background="new 0 0 841.89 1190.55"
	 xml:space="preserve">
<g>
	<path fill="#0B89CE" d="M482.449,708.123l-9.95-66.73L404,645.656v-54.431l-103.45,53.626l-55.49-3.459l-5.069,34.869l-1.526,0.802
		c0,0-147.704,156.889-152.558,161.743c-4.854,4.854-7.352,7.874-1.091,14.135c6.261,6.26,319.184,176.14,319.184,176.14V741.334
		C458,731.924,482.449,708.123,482.449,708.123z"/>
	<g>
		<polygon fill="#139AD6" points="439,659.41 475.127,657.161 472.806,641.393 439,643.5 		"/>
	</g>
	<path fill="#0A6F9B" d="M240.767,650.935c0,0,26.114,25.78,136.609,45.262c110.494,19.481,112.085-13.918,112.085-13.918
		L433,648.933l-98.608-7.499L240.767,650.935z"/>
	<g>
		<path fill="#FEC6B5" d="M72.719,478c0,0-0.037,0.749-0.009,0.907c8.925,50.474,28.225,74.184,54.463,104.638
			c50.289,58.371,128.355,84.373,232.504,84.373c104.14,0,182.202-25.809,232.492-84.167
			c26.245-30.455,44.532-53.604,54.474-104.858c0.03-0.159-0.009-0.893-0.009-0.893H72.719z"/>
		<path opacity="0.3" fill="#FEC6B5" d="M646.634,478H628.39l-39.128,17.847l-4.015,26.315c0,0-14.224,108.438-207.949,145.49
			c95.356-2.807,167.461-28.885,214.871-83.902c26.245-30.455,44.532-53.604,54.474-104.858
			C646.673,478.734,646.634,478,646.634,478z"/>
		<path fill="#0B89CE" d="M644.018,402.435l-0.129-0.587c0.896-9.291,1.368-18.746,1.368-28.197
			c0-157.796-127.92-285.814-285.715-285.814S73.826,215.587,73.826,373.384c0,9.716,0.491,18.616,1.438,28.616h0.04
			c0.656,3,9.313,48.892-2.593,76.482l-0.306,0.334c0,0,40.126,50.973,122.035,58.926c81.909,7.952,127.854-13.479,142.168-29.383
			c14.314-15.905,9.441-22.843,22.562-22.843c13.121,0,8.005,6.967,22.319,22.873c14.314,15.904,60.018,37.38,141.925,29.428
			c81.908-7.953,123.229-58.844,123.229-58.844l0,0C634.166,450.345,644.018,402.435,644.018,402.435z"/>
		<path fill="#139AD6" d="M104.699,441h-0.042c-1.012-10-1.537-19.95-1.537-30.333c0-168.629,136.701-305.151,305.329-305.151
			c24.305,0,47.94,2.982,70.605,8.353c-36.363-16.78-76.841-26.096-119.513-26.096c-157.795,0-285.716,127.783-285.716,285.579
			c0,9.716,0.491,18.647,1.438,28.647h0.04c0.656,3,9.313,48.892-2.593,76.482l-0.306,0.334c0,0,11.285,13.893,34.099,28.522
			C111.872,478.895,105.286,445,104.699,441z"/>
		<g>
			<linearGradient id="SVGID_1_" gradientUnits="userSpaceOnUse" x1="244.7578" y1="414.5439" x2="231.6359" y2="506.3976">
				<stop  offset="0" style="stop-color:#FFFFFF"/>
				<stop  offset="1" style="stop-color:#000000"/>
			</linearGradient>
			<path opacity="0.1" fill="url(#SVGID_1_)" d="M156.429,444.813c0,0,98.356,57.04,140.268,47.688
				c19.442-4.338,22.94-6.542,21.418-5.286c-12.675,10.463-59.865,39.598-114.736,22.898
				C148.509,493.413,156.429,444.813,156.429,444.813z"/>
			<polygon fill="#FFFFFF" points="295.412,491.401 269.52,483.67 270.329,485.091 257.583,480.741 240.101,474.774 
				224.836,470.027 198.256,461.322 177.426,453.849 159.046,446.303 161.754,458.398 164.847,467.159 171.701,478.974 
				179.809,487.808 191.66,496.175 205.024,501.501 221.098,503.813 237.5,504 247.639,504 261.093,502.134 276.465,498.832 
				277.929,498.27 294.284,493.344 			"/>
			<path fill="#BCBCBC" d="M293.248,493.153c-44.383-11.42-83.304-22.453-113.726-33.266c-0.847-0.302-1.727,0.33-1.723,1.228
				c0.029,10.144,5.7,22.563,11.818,30.664c0.874,1.156-0.502,2.672-1.717,1.885c-9.224-5.983-16.856-13.248-21.15-23.208
				c-0.021-0.046-0.038-0.094-0.053-0.142l-6.843-21.477c-0.327-1.029,0.667-1.981,1.676-1.603
				c40.341,15.09,84.492,29.554,132.412,43.401c0.768,0.222,1.157,1.079,0.812,1.8l-0.012,0.023
				C294.477,493.017,293.848,493.308,293.248,493.153z"/>
			<path fill="none" stroke="#025366" stroke-width="3" stroke-miterlimit="10" d="M159.097,446.068
				c3.325,24.082,14.94,43.453,41.424,54.377"/>
			<path fill="#025366" d="M303.677,491.923l-5.427-1.542l-13.042-3.894c-59.187-17.655-120.386-35.912-142.229-51.32l-2.062,2.924
				c22.321,15.746,83.806,34.087,143.268,51.825l7.944,2.373c-31.673,11.534-62.322,13.711-91.169,6.422l-0.876,3.469
				c11.441,2.893,23.148,4.336,35.084,4.336c20.493,0,41.648-4.259,63.226-12.755L303.677,491.923z"/>
			<path fill="none" stroke="#025366" stroke-width="3" stroke-miterlimit="10" d="M326.564,478.974
				c-2.937,4.261-7.693,8.645-16.898,13.122"/>
		</g>
		<g>
			
				<linearGradient id="SVGID_2_" gradientUnits="userSpaceOnUse" x1="2922.3652" y1="414.5439" x2="2909.2434" y2="506.3976" gradientTransform="matrix(-1 0 0 1 3403.7578 0)">
				<stop  offset="0" style="stop-color:#FFFFFF"/>
				<stop  offset="1" style="stop-color:#000000"/>
			</linearGradient>
			<path opacity="0.1" fill="url(#SVGID_2_)" d="M569.721,444.813c0,0-98.356,57.04-140.268,47.688
				c-19.442-4.338-22.94-6.542-21.419-5.286c12.675,10.463,59.865,39.598,114.736,22.898
				C577.641,493.413,569.721,444.813,569.721,444.813z"/>
			<polygon fill="#FFFFFF" points="430.753,491.401 456.645,483.67 455.835,485.091 468.581,480.741 486.064,474.774 
				501.328,470.027 527.908,461.322 548.74,453.849 567.118,446.303 564.411,458.398 561.317,467.159 554.463,478.974 
				546.356,487.808 534.504,496.175 521.141,501.501 505.067,503.813 488.666,504 478.527,504 465.071,502.134 449.701,498.832 
				448.235,498.27 431.881,493.344 			"/>
			<path fill="#BCBCBC" d="M432.916,493.153c44.383-11.42,83.304-22.453,113.728-33.266c0.847-0.302,1.725,0.33,1.723,1.228
				c-0.03,10.144-5.701,22.563-11.819,30.664c-0.872,1.156,0.502,2.672,1.719,1.885c9.224-5.983,16.855-13.248,21.149-23.208
				c0.02-0.046,0.037-0.094,0.054-0.142l6.841-21.477c0.329-1.029-0.665-1.981-1.676-1.603
				c-40.34,15.09-84.491,29.554-132.412,43.401c-0.767,0.222-1.155,1.079-0.812,1.8l0.012,0.023
				C431.688,493.017,432.317,493.308,432.916,493.153z"/>
			<path fill="none" stroke="#025366" stroke-width="3" stroke-miterlimit="10" d="M567.068,446.068
				c-3.324,24.082-14.941,43.453-41.425,54.377"/>
			<path fill="#025366" d="M434.035,492.289l7.945-2.373c59.461-17.738,120.946-36.08,143.267-51.825l-2.062-2.924
				c-21.843,15.408-83.043,33.665-142.229,51.321l-13.042,3.893l-4.979,1.491l4.836,1.888c21.58,8.497,42.731,12.755,63.227,12.755
				c11.933,0,23.644-1.444,35.084-4.336l-0.876-3.469C496.355,506,465.706,503.825,434.035,492.289z"/>
			<path fill="none" stroke="#025366" stroke-width="3" stroke-miterlimit="10" d="M399.601,478.974
				c2.937,4.261,7.694,8.645,16.899,13.122"/>
		</g>
		<g>
			<path fill="#FFFFFF" d="M351.519,398.105c-9.811,0-16.666-2.022-20.557-6.074c-3.894-4.048-5.839-10.745-5.839-20.089V249.536
				c0-6.694,1.904-11.833,5.722-15.417c3.815-3.581,8.527-5.373,14.133-5.373h44.619l5.839,31.536h-32.47
				c-2.026,0-3.037,1.091-3.037,3.271v99.746c0,2.183,1.011,3.271,3.037,3.271h32.47l-6.074,31.536H351.519z"/>
		</g>
		<g>
			<path fill="#BDCCD4" d="M95.338,415.979l-11.157-52.684c0,0-0.45-2.334-4.312-10.463c-3.86-8.13-11.346-17.506-11.346-17.506
				s-8.479-9.798-13.788-12.374c-5.31-2.574-13.356-6.543-13.356-6.543s-30.75-18.834-31.552-19.461
				c-0.803-0.628-1.885-0.091-1.885-0.091l6.112,6.332l23.348,25.183l12.479,14.464l9.236,16.685l1.691,1.202l8.958,8.445
				l7.052,43.277c0,0,19.758,37.988,21.359,38.393c1.603,0.404,2.422-2.877,2.422-2.877
				C99.111,435.903,95.338,415.979,95.338,415.979z"/>
			<path fill="#FFFFFF" d="M98.179,450.838l-23.509-85.534c0,0-10.239-29.793-30.062-41.284
				c-16.051-9.305-30.938-22.408-36.021-27.056c-0.45-0.411-1.206,0.045-1.002,0.602l36.003,98.841
				c0.425,1.166,0.988,2.282,1.678,3.328l9.104,13.803c1.169,1.774,2.991,3.079,5.146,3.715c3.377,0.997,9.072,3.841,14.558,11.94
				C82.623,441.819,90.27,449.234,98.179,450.838z"/>
			<path fill="#BDCCD4" d="M22.131,337.501l27.298,13.244c0,0,1.59,0.895,1.491,1.69c-0.099,0.796-27.263-10.745-27.096-10.289
				C23.989,342.601,22.131,337.501,22.131,337.501z"/>
			<path fill="#BDCCD4" d="M30.174,359.581l21.943,8.062c0,0,1.585,0.497,1.486,1.193c-0.099,0.695-22.191-5.856-22.191-5.856
				L30.174,359.581z"/>
			<path fill="#BDCCD4" d="M623.545,415.979l11.158-52.684c0,0,0.45-2.334,4.311-10.463c3.86-8.13,11.347-17.506,11.347-17.506
				s8.479-9.798,13.788-12.374c5.308-2.574,13.354-6.543,13.354-6.543s30.751-18.834,31.554-19.461
				c0.803-0.628,1.884-0.091,1.884-0.091l-6.111,6.332l-23.349,25.183l-12.479,14.464l-9.236,16.685l-1.691,1.202l-8.958,8.445
				l-7.052,43.277c0,0-19.759,37.988-21.36,38.393c-1.602,0.404-2.421-2.877-2.421-2.877
				C619.773,435.903,623.545,415.979,623.545,415.979z"/>
			<path fill="#FFFFFF" d="M620.704,450.838l23.511-85.534c0,0,10.239-29.793,30.062-41.284
				c16.051-9.305,30.938-22.408,36.021-27.056c0.45-0.411,1.205,0.045,1.002,0.602l-36.004,98.841
				c-0.424,1.166-0.986,2.282-1.677,3.328l-9.104,13.803c-1.171,1.774-2.991,3.079-5.146,3.715
				c-3.378,0.997-9.073,3.841-14.558,11.94C636.261,441.819,628.613,449.234,620.704,450.838z"/>
			<path fill="#BDCCD4" d="M696.752,337.501l-27.297,13.244c0,0-1.59,0.895-1.491,1.69c0.1,0.796,27.262-10.745,27.097-10.289
				C694.895,342.601,696.752,337.501,696.752,337.501z"/>
			<path fill="#BDCCD4" d="M688.709,359.581l-21.942,8.062c0,0-1.585,0.497-1.486,1.193c0.099,0.695,22.19-5.856,22.19-5.856
				L688.709,359.581z"/>
		</g>
		<path fill="#F3997F" d="M294.88,602.822c0,0,15.06-10.345,30.813-13.758c15.753-3.414,50.225-3.902,63.538-1.82
			c13.313,2.082,33.222,3.263,36.022,0.748c2.8-2.514,2.339-7.157-5.684-5.146c-8.024,2.011-72.353-8.186-96.983,1.747
			C297.958,594.522,294.88,602.822,294.88,602.822z"/>
	</g>
	<g>
		<g>
			<path fill="#ED1C24" d="M525.483,581.892c-170.228,0-308.224,127.9-308.224,285.673c0,157.771,137.996,285.671,308.224,285.671
				s308.224-127.9,308.224-285.671C833.707,709.792,695.711,581.892,525.483,581.892z"/>
			<path fill="#FFFFFF" d="M526.693,639.876c-137.817,0-249.538,103.972-249.538,232.227s111.721,232.227,249.538,232.227
				c137.815,0,249.538-103.972,249.538-232.227S664.509,639.876,526.693,639.876z"/>
			<path fill="#ED1C24" d="M529.449,702.2c-102.434,0-185.473,77.47-185.473,173.033s83.039,173.032,185.473,173.032
				c102.436,0,185.475-77.469,185.475-173.032S631.885,702.2,529.449,702.2z"/>
			<ellipse fill="#0B89CE" cx="530.488" cy="874.803" rx="140.215" ry="130.979"/>
			<polygon fill="#FFFFFF" points="530.468,755.155 567.965,826.291 651.81,837.697 591.14,893.069 605.461,971.253 530.468,934.34 
				455.476,971.253 469.797,893.069 409.127,837.697 492.972,826.291 			"/>
		</g>
		<radialGradient id="SVGID_3_" cx="539.1621" cy="876.4131" r="282.4403" gradientUnits="userSpaceOnUse">
			<stop  offset="0" style="stop-color:#FFFFFF"/>
			<stop  offset="0.0851" style="stop-color:#F7F7F7"/>
			<stop  offset="0.2149" style="stop-color:#E2E2E2"/>
			<stop  offset="0.3732" style="stop-color:#C0C0C0"/>
			<stop  offset="0.5539" style="stop-color:#8F8F8F"/>
			<stop  offset="0.7536" style="stop-color:#525252"/>
			<stop  offset="0.9663" style="stop-color:#080808"/>
			<stop  offset="0.9871" style="stop-color:#000000"/>
		</radialGradient>
		<path opacity="0.1" fill="url(#SVGID_3_)" d="M566.373,584.398l-35.886,290.404l202.348,204.126
			c61.971-52.254,100.872-127.599,100.872-211.364C833.707,722.642,717.269,602.938,566.373,584.398z"/>
		<radialGradient id="SVGID_4_" cx="530.8125" cy="879.9912" r="252.9316" gradientUnits="userSpaceOnUse">
			<stop  offset="0" style="stop-color:#FFFFFF"/>
			<stop  offset="0.0851" style="stop-color:#F7F7F7"/>
			<stop  offset="0.2149" style="stop-color:#E2E2E2"/>
			<stop  offset="0.3732" style="stop-color:#C0C0C0"/>
			<stop  offset="0.5539" style="stop-color:#8F8F8F"/>
			<stop  offset="0.7536" style="stop-color:#525252"/>
			<stop  offset="0.9663" style="stop-color:#080808"/>
			<stop  offset="0.9871" style="stop-color:#000000"/>
		</radialGradient>
		<path opacity="0.1" fill="url(#SVGID_4_)" d="M530.487,874.803l-254.354,160.685c56.038,71.354,146.841,117.748,249.351,117.748
			c79.848,0,152.603-28.143,207.352-74.307L530.487,874.803z"/>
	</g>
</g>
</svg>
